<svg xmlns="http://www.w3.org/2000/svg" viewBox="0 0 84.49 84.49" id="whatsapp"><g data-name="Layer 2"><g data-name="Layer 1"><rect width="84.49" height="84.49" fill="#fff" rx="6.09"></rect><path d="M22.71 63.62 25.82 52a21.52 21.52 0 1 1 8.57 8.49ZM35 56.13l.74.44a17.43 17.43 0 1 0-6-5.92l.46.74-1.74 6.49Z"></path><path fill-rule="evenodd" d="M52.58 44.61c-.88-.53-2-1.12-3.07-.69-.8.33-1.31 1.58-1.83 2.21a.77.77 0 0 1-1 .22 14 14 0 0 1-6.95-6 .86.86 0 0 1 .11-1.17 4.62 4.62 0 0 0 1.26-2 4.39 4.39 0 0 0-.56-2.42c-.42-.91-.89-2.19-1.79-2.7a2.46 2.46 0 0 0-2.67.39 5.43 5.43 0 0 0-1.87 4.29 5.63 5.63 0 0 0 .17 1.36 11.48 11.48 0 0 0 1.3 3c.42.71.87 1.4 1.36 2.07A21 21 0 0 0 43 48.66a18.11 18.11 0 0 0 3.69 1.76 8.19 8.19 0 0 0 4.28.67 5.17 5.17 0 0 0 3.89-2.89 2.44 2.44 0 0 0 .14-1.48c-.22-1.01-1.59-1.62-2.42-2.11Z " ></path></g></g></svg>